<?xml version="1.0" standalone="no"?>
<!DOCTYPE svg PUBLIC "-//W3C//DTD SVG 20010904//EN"
 "http://www.w3.org/TR/2001/REC-SVG-20010904/DTD/svg10.dtd">
<svg version="1.0" xmlns="http://www.w3.org/2000/svg"
 width="512.000000pt" height="512.000000pt" viewBox="0 0 512.000000 512.000000"
 preserveAspectRatio="xMidYMid meet">

<g transform="translate(0.000000,512.000000) scale(0.100000,-0.100000)"
fill="#000000" stroke="none">
<path d="M2370 5113 c-371 -35 -653 -114 -961 -269 -406 -203 -782 -548 -1029
-944 -179 -286 -309 -655 -362 -1025 -17 -118 -17 -512 0 -630 42 -295 120
-553 242 -800 137 -280 272 -468 494 -691 221 -220 412 -357 681 -489 188 -92
309 -137 500 -185 500 -126 1002 -102 1490 71 149 53 407 182 540 271 365 243
667 578 866 963 181 348 271 694 286 1090 15 426 -73 832 -263 1214 -124 250
-263 447 -458 648 -216 224 -428 378 -711 518 -296 146 -572 225 -900 255
-102 9 -333 11 -415 3z m641 -982 c69 -33 112 -74 150 -143 31 -58 34 -70 34
-148 0 -78 -3 -90 -34 -148 -38 -70 -70 -100 -145 -140 -43 -22 -64 -26 -136
-26 -78 -1 -90 2 -148 33 -69 37 -109 80 -144 151 -32 66 -31 196 2 265 42 86
123 152 215 176 49 13 158 2 206 -20z m0 -808 c81 -40 125 -83 158 -153 22
-46 26 -68 25 -135 -1 -78 -6 -94 -248 -754 -135 -370 -246 -675 -246 -677 0
-2 113 -4 251 -4 l252 0 -7 -57 c-15 -133 -70 -247 -167 -344 -102 -103 -170
-131 -419 -179 -278 -52 -363 -64 -420 -57 -94 11 -179 74 -230 169 -32 58
-35 69 -34 148 l1 85 247 674 c135 370 246 675 246 677 0 2 -112 4 -250 4
l-250 0 0 28 c0 15 7 56 15 91 39 162 157 301 327 385 149 74 433 138 594 133
79 -2 100 -7 155 -34z"/>
</g>
</svg>
