<?xml version="1.0" standalone="no"?>
<!DOCTYPE svg PUBLIC "-//W3C//DTD SVG 20010904//EN"
 "http://www.w3.org/TR/2001/REC-SVG-20010904/DTD/svg10.dtd">
<svg version="1.0" xmlns="http://www.w3.org/2000/svg"
 width="512.000000pt" height="512.000000pt" viewBox="0 0 512.000000 512.000000"
 preserveAspectRatio="xMidYMid meet">

<g transform="translate(0.000000,512.000000) scale(0.100000,-0.100000)"
fill="#000000" stroke="none">
<path d="M2383 4695 c-413 -75 -740 -394 -825 -804 -16 -79 -19 -122 -15 -241
6 -178 26 -261 102 -415 214 -437 695 -658 1174 -539 281 71 525 271 656 539
75 153 96 237 102 415 4 120 1 162 -15 241 -99 480 -523 823 -1011 818 -53 0
-128 -7 -168 -14z"/>
<path d="M2165 2449 c-964 -98 -1704 -875 -1752 -1841 l-6 -127 35 -35 36 -36
2071 0 c2277 0 2113 -5 2146 60 18 34 19 112 4 248 -70 643 -442 1200 -1009
1510 -169 92 -414 174 -625 208 -117 19 -750 28 -900 13z"/>
</g>
</svg>
